<?xml version="1.0" encoding="UTF-8" standalone="no"?>
<!-- Created with Inkscape (http://www.inkscape.org/) -->

<svg
   width="23.708075mm"
   height="27.419443mm"
   viewBox="0 0 23.708075 27.419443"
   version="1.1"
   id="svg1"
   xml:space="preserve"
   xmlns:inkscape="http://www.inkscape.org/namespaces/inkscape"
   xmlns:sodipodi="http://sodipodi.sourceforge.net/DTD/sodipodi-0.dtd"
   xmlns="http://www.w3.org/2000/svg"
   xmlns:svg="http://www.w3.org/2000/svg"><sodipodi:namedview
     id="namedview1"
     pagecolor="#ffffff"
     bordercolor="#000000"
     borderopacity="0.25"
     inkscape:showpageshadow="2"
     inkscape:pageopacity="0.0"
     inkscape:pagecheckerboard="0"
     inkscape:deskcolor="#d1d1d1"
     inkscape:document-units="mm" /><defs
     id="defs1" /><g
     inkscape:label="Capa 1"
     inkscape:groupmode="layer"
     id="layer1"
     transform="translate(34.199555,-88.697004)"><g
       id="g25"
       transform="translate(-39.85023,1.7932604)"
       inkscape:export-filename="robot.svg"
       inkscape:export-xdpi="96"
       inkscape:export-ydpi="96"><rect
         style="fill:#ffffff;fill-opacity:1;stroke:#ffffff;stroke-width:0.547061;stroke-opacity:1"
         id="rect3"
         width="14.925943"
         height="13.929688"
         x="10.021317"
         y="90.319527"
         ry="3.1529999" /><rect
         style="fill:#ffffff;fill-opacity:1;stroke:#ffffff;stroke-width:0.394523;stroke-opacity:1"
         id="rect1-7"
         width="2.1071298"
         height="3.4456022"
         x="16.354046"
         y="87.100998"
         ry="0.41470787" /><rect
         style="fill:#ffffff;fill-opacity:1;stroke:#ffffff;stroke-width:0.529167;stroke-opacity:1"
         id="rect1"
         width="1.9724858"
         height="6.6219163"
         x="6.2696872"
         y="93.833969"
         ry="0.79700458" /><rect
         style="fill:#ffffff;fill-opacity:1;stroke:#ffffff;stroke-width:0.529167;stroke-opacity:1"
         id="rect1-1"
         width="1.9724858"
         height="6.6219163"
         x="26.813852"
         y="93.928726"
         ry="0.79700458" /><path
         style="fill:#ffffff;fill-opacity:1;stroke:#ffffff;stroke-width:0.529167;stroke-opacity:1"
         d="m 10.778226,113.84061 v -3.66319 c 0,0 0.281783,-1.26803 1.268026,-1.26803 H 22.96537 c 0,0 1.162357,0.21134 1.162357,1.16236 v 3.62796 h 3.698412 c 0,0 1.268026,0.28179 1.268026,-1.26802 v -2.81784 c 0,0 -0.07044,-4.08586 -4.085863,-4.08586 h -14.51186 c 0,0 -4.5789848,0.71508 -4.5789848,4.57898 v 1.42387 c 0,0 -0.102619,1.93843 1.1119702,2.37429 1.0259947,0.36819 3.7487986,-0.0645 3.7487986,-0.0645 z"
         id="path1"
         sodipodi:nodetypes="ccscsccscscscsc" /><path
         style="fill:#ffffff;fill-opacity:1;stroke:#ffffff;stroke-width:0.529167;stroke-opacity:1"
         d="m 14.987369,113.92866 h -1.866817 v -2.53605 c 0,0 0.792517,-1.95488 1.866817,0 z"
         id="path2" /><path
         style="fill:#ffffff;fill-opacity:1;stroke:#ffffff;stroke-width:0.529167;stroke-opacity:1"
         d="m 18.455904,113.90829 h -1.866817 v -2.53605 c 0,0 0.792517,-1.95488 1.866817,0 z"
         id="path2-1" /><path
         style="fill:#ffffff;fill-opacity:1;stroke:#ffffff;stroke-width:0.529167;stroke-opacity:1"
         d="m 21.728178,113.89232 h -1.866817 v -2.53605 c 0,0 0.792517,-1.95488 1.866817,0 z"
         id="path2-1-0" /><circle
         style="fill:#000000;fill-opacity:1;stroke:#030303;stroke-width:0.529167"
         id="path4"
         r="1.4819304"
         cy="95.553383"
         cx="14.134378" /><circle
         style="fill:#000000;fill-opacity:1;stroke:#030303;stroke-width:0.529167"
         id="path4-8"
         r="1.4819304"
         cy="95.524162"
         cx="20.871609" /><circle
         style="fill:#000000;fill-opacity:1;stroke:#030303;stroke-width:0.299006"
         id="path4-8-1"
         r="0.83736575"
         cy="100.51101"
         cx="13.882865" /><circle
         style="fill:#000000;fill-opacity:1;stroke:#030303;stroke-width:0.299006"
         id="path4-8-1-9"
         r="0.83736575"
         cy="100.54492"
         cx="17.456367" /><circle
         style="fill:#000000;fill-opacity:1;stroke:#030303;stroke-width:0.299006"
         id="path4-8-1-7"
         cx="20.88331"
         cy="100.4702"
         r="0.83736575" /></g></g></svg>
